<svg xmlns="http://www.w3.org/2000/svg" id="Layer_1" viewBox="0 0 332.1 303.5">
  <style>
    .st0{opacity:0.84;fill:url(#SVGID_1_);} .st1{fill:url(#SVGID_2_);} .st2{fill:url(#SVGID_3_);} .st3{fill:url(#SVGID_4_);} .st4{fill:url(#SVGID_5_);} .st5{fill:url(#SVGID_6_);} .st6{fill:url(#SVGID_7_);} .st7{fill:url(#SVGID_8_);} .st8{fill:url(#SVGID_9_);} .st9{fill:url(#SVGID_10_);} .st10{fill:url(#SVGID_11_);} .st11{fill:url(#SVGID_12_);} .st12{fill:url(#SVGID_13_);} .st13{fill:url(#SVGID_14_);} .st14{fill:url(#SVGID_15_);} .st15{fill:#0A4F90;} .st16{fill:#181542;}
  </style>
  <linearGradient id="SVGID_1_" x1="155.599" x2="309.602" y1="192.227" y2="27.08" gradientUnits="userSpaceOnUse">
    <stop offset=".268" stop-color="#BB1BB6" stop-opacity=".4"/>
    <stop offset=".838" stop-color="#39249E" stop-opacity=".1"/>
  </linearGradient>
  <path d="M329.6 79.2c0-42.4-34.4-76.9-76.9-76.9-42.4 0-76.9 34.4-76.9 76.9v115.3c0 11.7 5.3 23.2 15.4 30.7 17 12.7 41.1 9.3 53.8-7.7l69.2-92.2c9.7-12.9 15.4-28.8 15.4-46.1z" class="st0"/>
  <linearGradient id="SVGID_2_" x1="8.631" x2="74.182" y1="196.821" y2="131.27" gradientUnits="userSpaceOnUse">
    <stop offset=".124" stop-color="#7FF7AD"/>
    <stop offset=".186" stop-color="#75F3AD"/>
    <stop offset=".406" stop-color="#55E5AE"/>
    <stop offset=".62" stop-color="#3EDBAF"/>
    <stop offset=".822" stop-color="#31D5AF"/>
    <stop offset="1" stop-color="#2CD3AF"/>
  </linearGradient>
  <path d="M60.6 232.9c-8.4 0-16.3-2.7-23-7.7-9.8-7.3-15.4-18.5-15.4-30.7V79.3c0 16.7 5.3 32.7 15.4 46l61.5 82-7.7 10.2c-7.4 9.8-18.6 15.4-30.8 15.4z" class="st1"/>
  <linearGradient id="SVGID_3_" x1="8.633" x2="74.18" y1="196.816" y2="131.269" gradientUnits="userSpaceOnUse">
    <stop offset=".124" stop-color="#7FF7AD"/>
    <stop offset=".186" stop-color="#75F3AD"/>
    <stop offset=".406" stop-color="#55E5AE"/>
    <stop offset=".62" stop-color="#3EDBAF"/>
    <stop offset=".822" stop-color="#31D5AF"/>
    <stop offset="1" stop-color="#2CD3AF"/>
  </linearGradient>
  <path d="M37.6 125.3c-9.6-12.8-15.3-28.7-15.4-46v115.2c0 11.7 5.3 23.2 15.4 30.7 17 12.7 41.1 9.3 53.8-7.7l7.7-10.2-61.5-82z" class="st2"/>
  <linearGradient id="SVGID_4_" x1="39.863" x2="156.401" y1="148.079" y2="31.541" gradientUnits="userSpaceOnUse">
    <stop offset="0" stop-color="#1B769C"/>
    <stop offset="1" stop-color="#29A7A5"/>
  </linearGradient>
  <path d="M37.6 125.3c-10-13.4-15.3-29.3-15.4-46v-.1C22.2 36.8 56.7 2.3 99 2.3c13.5 0 26.8 3.6 38.4 10.3C113.8 26.3 99 51.8 99 79.2c0 16.8 5.3 32.7 15.4 46.1l23.1 30.8L99 207.3l-61.4-82z" class="st3"/>
  <linearGradient id="SVGID_5_" x1="39.85" x2="156.388" y1="148.067" y2="31.529" gradientUnits="userSpaceOnUse">
    <stop offset="0" stop-color="#1B769C"/>
    <stop offset="1" stop-color="#29A7A5"/>
  </linearGradient>
  <path d="M114.4 125.3C104.8 112.4 99 96.5 99 79.2c0-28.4 15.5-53.3 38.4-66.5C126.2 6.1 113.1 2.3 99 2.3c-42.4 0-76.9 34.4-76.9 76.9v.1c0 17.3 5.7 33.2 15.4 46l61.5 82 38.4-51.2-23-30.8z" class="st4"/>
  <linearGradient id="SVGID_6_" x1="181.556" x2="285.535" y1="216.035" y2="112.056" gradientUnits="userSpaceOnUse">
    <stop offset="0" stop-color="#D32DAF"/>
    <stop offset="1" stop-color="#891CB5"/>
  </linearGradient>
  <path d="M214.4 232.9c-12.2 0-23.4-5.6-30.8-15.4l-7.7-10.2 61.5-82c10-13.4 15.3-29.3 15.4-46v115.2c0 12.2-5.6 23.4-15.4 30.7-6.7 5-14.7 7.7-23 7.7z" class="st5"/>
  <linearGradient id="SVGID_7_" x1="181.558" x2="285.533" y1="216.03" y2="112.054" gradientUnits="userSpaceOnUse">
    <stop offset="0" stop-color="#D32DAF"/>
    <stop offset="1" stop-color="#891CB5"/>
  </linearGradient>
  <path d="M237.4 125.3c9.6-12.8 15.3-28.7 15.4-46v115.2c0 11.7-5.3 23.2-15.4 30.7-17 12.7-41.1 9.3-53.8-7.7l-7.7-10.2 61.5-82z" class="st6"/>
  <linearGradient id="SVGID_8_" x1="161.37" x2="114.527" y1="225.04" y2="179.804" gradientUnits="userSpaceOnUse">
    <stop offset="0" stop-color="#357FE7"/>
    <stop offset="1" stop-color="#4BA1E7"/>
  </linearGradient>
  <path d="M137.5 232.9c-12.2 0-23.4-5.6-30.7-15.4L99 207.3l38.4-51.2 38.4 51.2-7.7 10.2c-7.2 9.8-18.4 15.4-30.6 15.4z" class="st7"/>
  <linearGradient id="SVGID_9_" x1="161.37" x2="114.529" y1="225.034" y2="179.799" gradientUnits="userSpaceOnUse">
    <stop offset="0" stop-color="#357FE7"/>
    <stop offset="1" stop-color="#4BA1E7"/>
  </linearGradient>
  <path d="M137.5 156L99 207.3l7.7 10.2c7.5 10.1 19.1 15.4 30.7 15.4 11.7 0 23.2-5.3 30.7-15.4l7.7-10.2-38.3-51.3z" class="st8"/>
  <g>
    <linearGradient id="SVGID_10_" x1="117.635" x2="236.004" y1="148.995" y2="30.626" gradientUnits="userSpaceOnUse">
      <stop offset="0" stop-color="#A6167D"/>
      <stop offset=".228" stop-color="#971A91"/>
      <stop offset=".693" stop-color="#7026C4"/>
      <stop offset="1" stop-color="#542EE9"/>
    </linearGradient>
    <path d="M137.5 156l23.1-30.7c10-13.4 15.4-29.3 15.4-46.1 0-27.3-14.7-52.8-38.4-66.5C149.3 6 162.5 2.4 176 2.4c42.4 0 76.9 34.5 76.9 76.9v.1c0 16.7-5.3 32.7-15.4 46l-61.5 82-38.5-51.4z" class="st9"/>
  </g>
  <g>
    <linearGradient id="SVGID_11_" x1="117.635" x2="236.03" y1="148.995" y2="30.6" gradientUnits="userSpaceOnUse">
      <stop offset="0" stop-color="#A6167D"/>
      <stop offset=".228" stop-color="#971A91"/>
      <stop offset=".693" stop-color="#7026C4"/>
      <stop offset="1" stop-color="#542EE9"/>
    </linearGradient>
    <path d="M160.5 125.3c9.6-12.9 15.4-28.8 15.4-46.1 0-28.4-15.5-53.3-38.4-66.5 11.3-6.5 24.4-10.3 38.4-10.3 42.4 0 76.9 34.4 76.9 76.9v.1c0 17.3-5.7 33.2-15.4 46l-61.5 82-38.4-51.4 23-30.7z" class="st10"/>
  </g>
  <g>
    <linearGradient id="SVGID_12_" x1="100.706" x2="174.248" y1="119.266" y2="45.724" gradientUnits="userSpaceOnUse">
      <stop offset="0" stop-color="#0E1F6F"/>
      <stop offset="1" stop-color="#103289"/>
    </linearGradient>
    <path d="M114.4 125.3C104.4 111.9 99 96 99 79.2c0-27.3 14.7-52.8 38.4-66.5 23.7 13.7 38.4 39.2 38.4 66.5 0 16.8-5.3 32.7-15.4 46.1L137.5 156l-23.1-30.7z" class="st11"/>
  </g>
  <g>
    <linearGradient id="SVGID_13_" x1="100.698" x2="174.254" y1="119.261" y2="45.706" gradientUnits="userSpaceOnUse">
      <stop offset="0" stop-color="#0E1F6F"/>
      <stop offset="1" stop-color="#103289"/>
    </linearGradient>
    <path d="M160.5 125.3c9.7-12.8 15.4-28.8 15.4-46.1 0-28.4-15.5-53.3-38.4-66.5-23 13.2-38.5 38-38.5 66.5 0 17.3 5.7 33.3 15.4 46.1l23.1 30.7 23-30.7z" class="st12"/>
  </g>
  <g>
    <linearGradient id="SVGID_14_" x1="143.88" x2="207.927" y1="175.24" y2="111.193" gradientUnits="userSpaceOnUse">
      <stop offset=".23" stop-color="#39249E"/>
      <stop offset=".848" stop-color="#4135B9"/>
    </linearGradient>
    <path d="M137.5 156l23.1-30.7c10-13.4 15.4-29.3 15.4-46.1v128.1L137.5 156z" class="st13"/>
  </g>
  <g>
    <linearGradient id="SVGID_15_" x1="143.88" x2="207.928" y1="175.24" y2="111.193" gradientUnits="userSpaceOnUse">
      <stop offset=".23" stop-color="#39249E"/>
      <stop offset=".848" stop-color="#4135B9"/>
    </linearGradient>
    <path d="M160.5 125.3l-23 30.7 38.4 51.2v-128c0 17.3-5.7 33.2-15.4 46.1z" class="st14"/>
  </g>
  <g>
    <path d="M99 79.2c0 16.8 5.3 32.7 15.4 46.1l23.1 30.7L99 207.3V79.2z" class="st15"/>
  </g>
  <g>
    <path d="M114.4 125.3l23.1 30.7L99 207.3V79.2c0 17.3 5.8 33.2 15.4 46.1z" class="st15"/>
  </g>
  <g>
    <path d="M20.9 272.9c1.3-1.6 3.5-3.4 7.5-3.4 2.8 0 4.6.8 5.7 2.1 1.4 1.6 1.8 3.1 1.8 7.9v12.1h-5.2v-10.8c0-4-.2-6.7-4.2-6.7-3.3 0-4.7 2.5-4.7 6.1v11.5h-5.2v-10.8c0-4-.2-6.7-4.2-6.7-3.2 0-4.7 2.5-4.7 6.1v11.5H2.5v-22.1h5.2v3.3c.9-1.8 3.4-3.4 6.8-3.4 2.3 0 4.1.7 5.4 2.1.5.3.7.7 1 1.2zM39.4 281.1c0-6.8 3.8-11.6 9.7-11.6 2.9 0 4.9 1.4 6.4 3v-2.8h5.2v22.1h-5.2v-2c-1.5 1.7-3.5 2.9-6.4 2.9-5.8-.2-9.7-5-9.7-11.6zm10.9-7.1c-3.4 0-5.6 2.6-5.6 7 0 4.3 2.2 7 5.6 7 3.3 0 5.6-2.7 5.6-7s-2.3-7-5.6-7zM70.6 260v19l9-9.4h6.8l-8.7 8.6 9.5 13.5h-6.5L74 282l-3.3 3.1v6.6h-5.2V260h5.1zM108.3 287c-1 1.5-3.9 5.5-10.3 5.5-6.5 0-10.9-4.6-10.9-11.7 0-6.8 4.7-11.3 10.8-11.3 7 0 10.4 4.7 10.4 11.4v1.2h-16c.4 3.1 2.2 5.7 6.1 5.7 4 0 5.7-2.6 6.4-3.7l3.5 2.9zm-16-8.9H103c-.1-2.8-2.2-4.8-5.2-4.8-3 .1-5.4 2.1-5.5 4.8zM130 272.9c1.3-1.6 3.5-3.4 7.5-3.4 2.8 0 4.7.8 5.8 2.1 1.4 1.6 2 3.1 2 7.9v12.1h-5.2v-10.8c0-4-.4-6.7-4.3-6.7-3.3 0-4.9 2.5-4.9 6.1v11.5h-5.2v-10.8c0-4-.2-6.7-4.2-6.7-3.2 0-4.7 2.5-4.7 6.1v11.5h-5.2v-22.1h5.2v3.3c.9-1.8 3.4-3.4 6.9-3.4 2.3 0 4.1.7 5.4 2.1.4.3.7.7.9 1.2zM169.7 287c-1 1.5-3.9 5.5-10.3 5.5-6.5 0-10.9-4.6-10.9-11.7 0-6.8 4.7-11.3 10.8-11.3 7 0 10.4 4.7 10.4 11.4v1.2h-16c.4 3.1 2.2 5.7 6.1 5.7 4 0 5.7-2.6 6.4-3.7l3.5 2.9zm-16-8.9h10.7c-.1-2.8-2.2-4.8-5.2-4.8-3 .1-5.4 2.1-5.5 4.8zM197.5 269.6h5.2v12.1c0 1.6.1 3.1.6 4.2.5 1.2 1.5 1.9 3.3 1.9 3.3 0 4.7-2.5 4.7-6.1v-12.2h5.2v22.1h-5.2v-2.5c-.9 1.8-3.4 3.4-6.5 3.4-2.2 0-4.1-.7-5.4-2.1-1.4-1.6-1.9-3.1-1.9-7.9v-12.9zM225.9 291.6h-5.2V260h5.2v31.6zM244.7 276.2c-1.5-1.5-3.6-2.5-6.2-2.5-2.1 0-3.6.7-3.6 2.2 0 1.6 1.5 1.9 4.6 2.5l2.6.6c3.3.8 6.3 2 6.3 6 0 5-4.6 7.4-9.6 7.4-5.3 0-8.8-2.6-10.1-4.5l3.5-3.1c1.3 1.7 3.4 3.3 6.7 3.3 2.6 0 4.1-.9 4.1-2.5 0-1.5-1.3-1.8-3.4-2.3l-3.3-.7c-3.8-.8-6.8-2.4-6.8-6.5 0-4.8 4.7-6.8 8.8-6.8 4.4 0 7.8 1.9 9.2 3.5l-2.8 3.4zM272.4 287c-1 1.5-3.9 5.5-10.3 5.5-6.5 0-10.9-4.6-10.9-11.7 0-6.8 4.7-11.3 10.8-11.3 7 0 10.4 4.7 10.4 11.4v1.2h-16c.4 3.1 2.2 5.7 6.1 5.7 4 0 5.7-2.6 6.4-3.7l3.5 2.9zm-16-8.9h10.7c-.1-2.8-2.2-4.8-5.2-4.8-2.9.1-5.3 2.1-5.5 4.8zM184.5 269.4c-2.9 0-5.4 1.4-6.6 3v-2.5h-5.2v31.3h5.2v-11.5c1.5 1.7 3.7 2.9 6.6 2.9 5.9 0 9.7-4.8 9.7-11.4 0-7-3.8-11.8-9.7-11.8zm-1 18.5c-3.3 0-5.6-2.7-5.6-7s2.3-7 5.6-7c3.4 0 5.6 2.6 5.6 7s-2.2 7-5.6 7z" class="st16" style="fill: black!important;"/>
  </g>
</svg>
